<svg xmlns="http://www.w3.org/2000/svg" width="1600" height="1200" viewBox="0 0 1600 1200" font-family="Inter, Helvetica Neue, Arial, sans-serif"><rect width="1600" height="1200" fill="#111111"/><rect x="160" y="160" width="620" height="860" rx="4" fill="#262626" stroke="#1b1b1b"/><circle cx="240" cy="260" r="40" fill="#ff6b00" /><circle cx="254.0" cy="252.0" r="22.0" fill="#262626" /><text x="300" y="272" font-size="30" fill="#efe9df" font-weight="800" text-anchor="start" letter-spacing="3" >NOVA</text><rect x="240" y="360" width="437.0" height="10" rx="4" fill="#1b1b1b" /><rect x="240" y="390" width="437.0" height="10" rx="4" fill="#1b1b1b" /><rect x="240" y="420" width="437.0" height="10" rx="4" fill="#1b1b1b" /><rect x="240" y="450" width="276.0" height="10" rx="4" fill="#1b1b1b" /><rect x="240" y="520" width="437.0" height="10" rx="4" fill="#1b1b1b" /><rect x="240" y="550" width="437.0" height="10" rx="4" fill="#1b1b1b" /><rect x="240" y="580" width="437.0" height="10" rx="4" fill="#1b1b1b" /><rect x="240" y="610" width="437.0" height="10" rx="4" fill="#1b1b1b" /><rect x="240" y="640" width="437.0" height="10" rx="4" fill="#1b1b1b" /><rect x="240" y="670" width="437.0" height="10" rx="4" fill="#1b1b1b" /><rect x="240" y="700" width="276.0" height="10" rx="4" fill="#1b1b1b" /><rect x="240" y="800" width="285.0" height="10" rx="4" fill="#1b1b1b" /><rect x="240" y="830" width="180.0" height="10" rx="4" fill="#1b1b1b" /><rect x="240" y="950" width="460" height="4" rx="0" fill="#ff6b00" /><g transform="rotate(-8 1180 420)"><rect x="900" y="300" width="560" height="320" rx="10" fill="#111111" /><circle cx="1000" cy="420" r="48" fill="#ff6b00" /><circle cx="1016.8" cy="410.4" r="26.400000000000002" fill="#111111" /><text x="1070" y="436" font-size="40" fill="#efe9df" font-weight="800" text-anchor="start" letter-spacing="4" >NOVA</text><text x="940" y="580" font-size="18" fill="#8a857d" font-weight="600" text-anchor="start" letter-spacing="0" >Nova AI</text></g><g transform="rotate(5 1180 820)"><rect x="900" y="680" width="560" height="320" rx="10" fill="#ff6b00" /><text x="940" y="760" font-size="24" fill="#111111" font-weight="800" text-anchor="start" letter-spacing="0" >Ayesha Fernando</text><text x="940" y="796" font-size="18" fill="#111111" font-weight="500" text-anchor="start" letter-spacing="0" >Director</text><text x="940" y="930" font-size="18" fill="#111111" font-weight="600" text-anchor="start" letter-spacing="0" >hello@nova.lk</text></g></svg>